<svg width="79" height="12" viewBox="0 0 79 12" fill="none" xmlns="http://www.w3.org/2000/svg">
<rect x="5.65686" width="8" height="8" rx="2" transform="rotate(45 5.65686 0)" fill="#313131"/>
<path fill-rule="evenodd" clip-rule="evenodd" d="M8.65686 10.2179C9.42172 10.66 10.4167 10.5539 11.0711 9.8995L13.8995 7.07107C14.6805 6.29002 14.6805 5.02369 13.8995 4.24264L11.0711 1.41422C10.4167 0.759853 9.42172 0.653716 8.65686 1.09581C8.80493 1.1814 8.9444 1.28753 9.07108 1.41422L11.8995 4.24264C12.6805 5.02369 12.6805 6.29002 11.8995 7.07107L9.07108 9.8995C8.9444 10.0262 8.80493 10.1323 8.65686 10.2179Z" fill="#EB5758"/>
<path d="M24.8523 10H21.7585V1.27274H24.8778C25.7557 1.27274 26.5114 1.44745 27.1449 1.79688C27.7784 2.14347 28.2656 2.64205 28.6065 3.29262C28.9503 3.94319 29.1222 4.7216 29.1222 5.62785C29.1222 6.53694 28.9503 7.31819 28.6065 7.9716C28.2656 8.62501 27.7756 9.12643 27.1364 9.47586C26.5 9.82529 25.7386 10 24.8523 10ZM23.6037 8.41904H24.7756C25.321 8.41904 25.7798 8.32245 26.152 8.12927C26.527 7.93325 26.8082 7.63069 26.9957 7.2216C27.1861 6.80967 27.2812 6.27842 27.2812 5.62785C27.2812 4.98296 27.1861 4.45597 26.9957 4.04688C26.8082 3.63779 26.5284 3.33666 26.1562 3.14347C25.7841 2.95029 25.3253 2.8537 24.7798 2.8537H23.6037V8.41904Z" fill="#313131"/>
<path d="M30.489 10V1.27274H36.3697V2.79404H32.3342V4.87359H36.0671V6.39489H32.3342V8.4787H36.3867V10H30.489Z" fill="#313131"/>
<path d="M39.4133 1.27274L41.5227 7.90342H41.6037L43.7173 1.27274H45.7628L42.7543 10H40.3764L37.3636 1.27274H39.4133Z" fill="#313131"/>
<path d="M46.8132 10V1.27274H50.3075C50.9496 1.27274 51.4851 1.36791 51.9141 1.55825C52.343 1.74859 52.6655 2.01279 52.8814 2.35086C53.0973 2.68609 53.2052 3.07245 53.2052 3.50995C53.2052 3.85086 53.1371 4.15058 53.0007 4.4091C52.8643 4.66478 52.6768 4.87501 52.4382 5.03978C52.2024 5.20171 51.9325 5.31677 51.6285 5.38495V5.47018C51.9609 5.48438 52.272 5.57813 52.5618 5.75143C52.8544 5.92472 53.0916 6.16762 53.2734 6.48012C53.4552 6.78978 53.5462 7.1591 53.5462 7.58808C53.5462 8.05114 53.4311 8.4645 53.201 8.82813C52.9737 9.18893 52.6371 9.47444 52.191 9.68467C51.745 9.89489 51.1953 10 50.5419 10H46.8132ZM48.6584 8.49149H50.1626C50.6768 8.49149 51.0518 8.39347 51.2876 8.19745C51.5234 7.99859 51.6413 7.73438 51.6413 7.40484C51.6413 7.16336 51.5831 6.95029 51.4666 6.76563C51.3501 6.58097 51.1839 6.43609 50.968 6.33097C50.755 6.22586 50.5007 6.1733 50.2052 6.1733H48.6584V8.49149ZM48.6584 4.92472H50.0263C50.2791 4.92472 50.5035 4.88069 50.6996 4.79262C50.8984 4.70171 51.0547 4.57387 51.1683 4.4091C51.2848 4.24433 51.343 4.04688 51.343 3.81677C51.343 3.50143 51.2308 3.24717 51.0064 3.05399C50.7848 2.8608 50.4695 2.76421 50.0604 2.76421H48.6584V4.92472Z" fill="#313131"/>
<path d="M60.1374 1.27274H61.9826V6.94035C61.9826 7.57671 61.8306 8.13353 61.5266 8.6108C61.2255 9.08808 60.8036 9.46024 60.261 9.72728C59.7184 9.99149 59.0863 10.1236 58.3647 10.1236C57.6403 10.1236 57.0067 9.99149 56.4641 9.72728C55.9215 9.46024 55.4996 9.08808 55.1985 8.6108C54.8974 8.13353 54.7468 7.57671 54.7468 6.94035V1.27274H56.592V6.78268C56.592 7.11507 56.6644 7.41052 56.8093 7.66904C56.957 7.92757 57.1644 8.13069 57.4315 8.27842C57.6985 8.42614 58.0096 8.50001 58.3647 8.50001C58.7226 8.50001 59.0337 8.42614 59.2979 8.27842C59.565 8.13069 59.7709 7.92757 59.9158 7.66904C60.0636 7.41052 60.1374 7.11507 60.1374 6.78268V1.27274Z" fill="#313131"/>
<path d="M63.407 10V8.90484L67.7621 2.79404H63.3984V1.27274H70.0802V2.36791L65.7209 8.4787H70.0888V10H63.407Z" fill="#313131"/>
<path d="M71.4109 10V8.90484L75.766 2.79404H71.4023V1.27274H78.0842V2.36791L73.7248 8.4787H78.0927V10H71.4109Z" fill="#313131"/>
</svg>
