<svg width="73" height="16" viewBox="0 0 73 16" fill="none" xmlns="http://www.w3.org/2000/svg">
<path fill-rule="evenodd" clip-rule="evenodd" d="M8.5 0.866022C7.5718 0.330123 6.4282 0.330123 5.5 0.866022L1.5718 3.13397C0.643594 3.66987 0.0717969 4.66025 0.0717969 5.73205V10.2679C0.0717969 11.3397 0.643594 12.3301 1.5718 12.866L5.5 15.134C6.4282 15.6699 7.5718 15.6699 8.5 15.134L12.4282 12.866C13.3564 12.3301 13.9282 11.3397 13.9282 10.2679V5.73205C13.9282 4.66025 13.3564 3.66987 12.4282 3.13397L8.5 0.866022ZM7.5 2.28867C7.1906 2.11004 6.8094 2.11004 6.5 2.28867L2.30385 4.71132C1.99445 4.88995 1.80385 5.22008 1.80385 5.57735V10.4226C1.80385 10.7799 1.99445 11.11 2.30385 11.2887L6.5 13.7113C6.8094 13.89 7.1906 13.89 7.5 13.7113L11.6962 11.2887C12.0056 11.11 12.1962 10.7799 12.1962 10.4226V5.57735C12.1962 5.22008 12.0056 4.88995 11.6962 4.71132L7.5 2.28867Z" fill="#EB5758"/>
<path d="M6.22154 5.67692C6.01846 5.67692 5.86872 5.70564 5.77231 5.76308C5.6759 5.81846 5.63487 5.92 5.64923 6.06769L5.74462 6.97538C5.75077 7.03077 5.75385 7.08205 5.75385 7.12923C5.75385 7.4 5.66974 7.6041 5.50154 7.74154C5.33538 7.87692 5.09744 7.9682 4.78769 8.01538C5.10974 8.06256 5.35077 8.15179 5.51077 8.28308C5.67282 8.41436 5.75385 8.61641 5.75385 8.88923C5.75385 8.94051 5.75077 8.9959 5.74462 9.05538L5.64923 9.96308C5.64718 9.97538 5.64615 9.99282 5.64615 10.0154C5.64615 10.1426 5.69436 10.2308 5.79077 10.28C5.88718 10.3292 6.03077 10.3538 6.22154 10.3538V11.0308C5.87077 11.0308 5.58667 11 5.36923 10.9385C5.15385 10.8769 4.99487 10.7774 4.89231 10.64C4.78974 10.5026 4.73846 10.32 4.73846 10.0923C4.73846 10.0513 4.74256 9.98564 4.75077 9.89538L4.84308 9.01538C4.84513 8.99692 4.84615 8.97026 4.84615 8.93538C4.84615 8.74462 4.77128 8.60923 4.62154 8.52923C4.47385 8.44923 4.26667 8.40923 4 8.40923V7.62154C4.26462 7.62154 4.47179 7.58154 4.62154 7.50154C4.77128 7.42154 4.84615 7.28615 4.84615 7.09538C4.84615 7.06051 4.84513 7.03385 4.84308 7.01538L4.75077 6.14154C4.74256 6.0759 4.73846 6.00615 4.73846 5.93231C4.73846 5.70462 4.78974 5.52308 4.89231 5.38769C4.99692 5.25231 5.15692 5.15385 5.37231 5.09231C5.58769 5.03077 5.87077 5 6.22154 5V5.67692Z" fill="#313131"/>
<path d="M7.86371 5C8.21448 5 8.49756 5.03077 8.71294 5.09231C8.93038 5.15385 9.09038 5.25333 9.19294 5.39077C9.29551 5.52821 9.34679 5.71077 9.34679 5.93846C9.34679 5.97949 9.34269 6.04513 9.33448 6.13538L9.24218 7.01538C9.24012 7.03385 9.2391 7.06051 9.2391 7.09538C9.2391 7.28615 9.31294 7.42154 9.46064 7.50154C9.61038 7.58154 9.81859 7.62154 10.0853 7.62154V8.40923C9.82064 8.40923 9.61346 8.44923 9.46371 8.52923C9.31397 8.60923 9.2391 8.74462 9.2391 8.93538C9.2391 8.97026 9.24012 8.99692 9.24218 9.01538L9.33448 9.88923C9.34269 9.95487 9.34679 10.0246 9.34679 10.0985C9.34679 10.3262 9.29448 10.5077 9.18987 10.6431C9.0873 10.7785 8.92833 10.8769 8.71294 10.9385C8.49756 11 8.21448 11.0308 7.86371 11.0308V10.3538C8.06679 10.3538 8.21653 10.3251 8.31294 10.2677C8.40936 10.2123 8.45038 10.1108 8.43602 9.96308L8.34064 9.05538C8.33448 9 8.33141 8.94872 8.33141 8.90154C8.33141 8.62872 8.41448 8.42462 8.58064 8.28923C8.74884 8.15385 8.98884 8.06256 9.30064 8.01538C8.97653 7.9682 8.73346 7.87897 8.57141 7.74769C8.41141 7.61436 8.33141 7.41231 8.33141 7.14154C8.33141 7.0882 8.33448 7.03282 8.34064 6.97538L8.43602 6.06769C8.43807 6.05538 8.4391 6.03795 8.4391 6.01538C8.4391 5.8882 8.39089 5.8 8.29448 5.75077C8.19807 5.70154 8.05448 5.67692 7.86371 5.67692V5Z" fill="#313131"/>
<path d="M27.6717 7.87882C27.6717 9.3473 27.3266 10.3741 26.6364 10.9592C25.9499 11.5406 25.0684 11.8313 23.9918 11.8313H22V4H23.8568C24.5883 4 25.2316 4.1057 25.7868 4.3171C26.3457 4.5285 26.7996 4.9211 27.1484 5.4949C27.4973 6.06493 27.6717 6.85957 27.6717 7.87882ZM26.0625 7.87882C26.0625 7.14647 25.9743 6.58022 25.798 6.18007C25.6255 5.77992 25.3966 5.51 25.1116 5.37033C24.8302 5.22688 24.4982 5.15515 24.1156 5.15515H23.5417V10.6818H24.1213C24.7177 10.6818 25.1903 10.476 25.5392 10.0646C25.888 9.6493 26.0625 8.92072 26.0625 7.87882Z" fill="#313131"/>
<path d="M30.2133 9.28879C30.2546 9.82861 30.4121 10.2288 30.686 10.4892C30.9635 10.7497 31.318 10.88 31.7494 10.88C32.0232 10.88 32.2858 10.8365 32.5371 10.7497C32.7885 10.6629 33.0417 10.5345 33.2967 10.3647L33.9157 11.2197C33.6268 11.4651 33.2892 11.6576 32.9029 11.7973C32.5165 11.9332 32.1001 12.0011 31.6537 12.0011C31.0198 12.0011 30.4796 11.869 30.0333 11.6048C29.5906 11.3405 29.2549 10.9706 29.0261 10.4949C28.801 10.0193 28.6885 9.4681 28.6885 8.84145C28.6885 8.24122 28.7991 7.7014 29.0205 7.22197C29.2455 6.73877 29.5681 6.35938 29.9882 6.0838C30.4121 5.80445 30.911 5.66478 31.4849 5.66478C32.0251 5.66478 32.4959 5.78558 32.8972 6.02718C33.2986 6.26878 33.6081 6.61797 33.8256 7.07474C34.0432 7.52775 34.152 8.06757 34.152 8.69422C34.152 8.9094 34.1426 9.10759 34.1239 9.28879H30.2133ZM31.4906 6.71801C31.1192 6.71801 30.8191 6.85202 30.5903 7.12005C30.3652 7.3843 30.2339 7.78822 30.1964 8.33182H32.7059C32.6984 7.81465 32.5915 7.41638 32.3852 7.13703C32.1827 6.85768 31.8844 6.71801 31.4906 6.71801Z" fill="#313131"/>
<path d="M39.5801 5.83465H41.0937L39.0456 11.8313H37.3013L35.2419 5.83465H36.8399L38.1959 10.6365L39.5801 5.83465Z" fill="#313131"/>
<path d="M47.8441 9.56059C47.8441 10.3798 47.5533 10.963 46.9719 11.3103C46.3942 11.6576 45.6515 11.8313 44.7437 11.8313H42.3299V4H44.6031C45.4583 4 46.156 4.15478 46.6962 4.46433C47.2364 4.77388 47.5065 5.2835 47.5065 5.9932C47.5065 6.44621 47.3714 6.81616 47.1013 7.10306C46.8312 7.38996 46.488 7.58437 46.0716 7.6863C46.5743 7.76557 46.9944 7.95243 47.332 8.24689C47.6734 8.54134 47.8441 8.97924 47.8441 9.56059ZM45.9479 6.12911C45.9479 5.7818 45.8391 5.52888 45.6215 5.37033C45.4077 5.21178 45.0832 5.1325 44.6481 5.1325H43.8716V7.19932H44.7156C45.1395 7.19932 45.4508 7.11438 45.6496 6.94451C45.8485 6.77463 45.9479 6.50283 45.9479 6.12911ZM46.2461 9.52095C46.2461 9.07173 46.1223 8.75462 45.8747 8.56965C45.6271 8.38467 45.2783 8.29219 44.8281 8.29219H43.8716V10.6704H44.7606C45.2033 10.6704 45.5615 10.5893 45.8353 10.427C46.1092 10.2609 46.2461 9.95885 46.2461 9.52095Z" fill="#EB5758"/>
<path d="M50.6839 9.99094C50.6839 10.308 50.7458 10.5345 50.8696 10.6704C50.9933 10.8063 51.1809 10.8743 51.4322 10.8743C51.661 10.8743 51.8861 10.8045 52.1074 10.6648C52.3325 10.5251 52.5144 10.3439 52.6532 10.1212V5.83465H54.1387V11.8313H52.8445L52.7658 11.0951C52.5557 11.3858 52.2856 11.6104 51.9555 11.769C51.6254 11.9237 51.2766 12.0011 50.9089 12.0011C50.3425 12.0011 49.9149 11.8407 49.6261 11.5198C49.341 11.1989 49.1984 10.7497 49.1984 10.1721V5.83465H50.6839V9.99094Z" fill="#EB5758"/>
<path d="M60.7934 6.91053L57.7437 10.6704H60.844L60.6921 11.8313H55.9713V10.761L59.0491 7.00113H56.2245V5.83465H60.7934V6.91053Z" fill="#EB5758"/>
<path d="M67.5438 6.91053L64.4941 10.6704H67.5944L67.4425 11.8313H62.7217V10.761L65.7995 7.00113H62.9749V5.83465H67.5438V6.91053Z" fill="#EB5758"/>
<path d="M71.914 5.84032C72.1129 5.84032 72.2948 5.88939 72.4598 5.98754C72.6286 6.08569 72.7599 6.21971 72.8537 6.38958C72.9512 6.55568 73 6.73499 73 6.92752C73 7.12382 72.9512 7.30691 72.8537 7.47678C72.7599 7.64288 72.6286 7.77501 72.4598 7.87316C72.2948 7.97131 72.1129 8.02039 71.914 8.02039C71.7152 8.02039 71.5314 7.97131 71.3626 7.87316C71.1976 7.77501 71.0663 7.64288 70.9688 7.47678C70.875 7.30691 70.8281 7.12382 70.8281 6.92752C70.8281 6.73499 70.8769 6.55568 70.9744 6.38958C71.0719 6.21971 71.2032 6.08569 71.3683 5.98754C71.5333 5.88939 71.7152 5.84032 71.914 5.84032ZM71.914 9.7248C72.1166 9.7248 72.3004 9.77199 72.4655 9.86636C72.6305 9.96074 72.7599 10.091 72.8537 10.2571C72.9512 10.4232 73 10.6063 73 10.8063C73 10.98 72.97 11.1612 72.91 11.3499C72.8537 11.5349 72.7562 11.786 72.6174 12.1031L71.7903 14H70.7437L71.2951 11.701C71.1488 11.6029 71.0344 11.4764 70.9519 11.3216C70.8694 11.1631 70.8281 10.9894 70.8281 10.8007C70.8281 10.6006 70.875 10.4194 70.9688 10.2571C71.0663 10.091 71.1976 9.96074 71.3626 9.86636C71.5277 9.77199 71.7115 9.7248 71.914 9.7248Z" fill="#C9C9C9"/>
</svg>
