<svg width="14" height="16" viewBox="0 0 14 16" fill="none" xmlns="http://www.w3.org/2000/svg">
<path fill-rule="evenodd" clip-rule="evenodd" d="M8.5 0.866024C7.57181 0.33012 6.42819 0.33012 5.5 0.866024L1.57181 3.13397C0.643585 3.66987 0.0718079 4.66025 0.0718079 5.73204V10.2679C0.0718079 11.3397 0.643585 12.3301 1.57181 12.866L5.5 15.134C6.42819 15.6699 7.57181 15.6699 8.5 15.134L12.4282 12.866C13.3564 12.3301 13.9282 11.3397 13.9282 10.2679V5.73204C13.9282 4.66025 13.3564 3.66987 12.4282 3.13397L8.5 0.866024ZM7.5 2.28867C7.19061 2.11003 6.80939 2.11003 6.5 2.28867L2.30383 4.71132C1.99445 4.88996 1.80383 5.22008 1.80383 5.57734V10.4226C1.80383 10.7799 1.99445 11.11 2.30383 11.2887L6.5 13.7113C6.80939 13.89 7.19061 13.89 7.5 13.7113L11.6962 11.2887C12.0056 11.11 12.1962 10.7799 12.1962 10.4226V5.57734C12.1962 5.22008 12.0056 4.88996 11.6962 4.71132L7.5 2.28867Z" fill="#EB5758"/>
<path d="M6.22154 5.67692C6.01846 5.67692 5.86872 5.70564 5.77231 5.76308C5.6759 5.81846 5.63487 5.92 5.64923 6.06769L5.74462 6.97538C5.75077 7.03077 5.75385 7.08205 5.75385 7.12923C5.75385 7.4 5.66974 7.6041 5.50154 7.74154C5.33538 7.87692 5.09744 7.9682 4.78769 8.01538C5.10974 8.06256 5.35077 8.15179 5.51077 8.28308C5.67282 8.41436 5.75385 8.61641 5.75385 8.88923C5.75385 8.94051 5.75077 8.9959 5.74462 9.05538L5.64923 9.96308C5.64718 9.97538 5.64615 9.99282 5.64615 10.0154C5.64615 10.1426 5.69436 10.2308 5.79077 10.28C5.88718 10.3292 6.03077 10.3538 6.22154 10.3538V11.0308C5.87077 11.0308 5.58667 11 5.36923 10.9385C5.15385 10.8769 4.99487 10.7774 4.89231 10.64C4.78974 10.5026 4.73846 10.32 4.73846 10.0923C4.73846 10.0513 4.74256 9.98564 4.75077 9.89538L4.84308 9.01538C4.84513 8.99692 4.84615 8.97026 4.84615 8.93538C4.84615 8.74462 4.77128 8.60923 4.62154 8.52923C4.47385 8.44923 4.26667 8.40923 4 8.40923V7.62154C4.26462 7.62154 4.47179 7.58154 4.62154 7.50154C4.77128 7.42154 4.84615 7.28615 4.84615 7.09538C4.84615 7.06051 4.84513 7.03385 4.84308 7.01538L4.75077 6.14154C4.74256 6.0759 4.73846 6.00615 4.73846 5.93231C4.73846 5.70462 4.78974 5.52308 4.89231 5.38769C4.99692 5.25231 5.15692 5.15385 5.37231 5.09231C5.58769 5.03077 5.87077 5 6.22154 5V5.67692Z" fill="#313131"/>
<path d="M7.86371 5C8.21448 5 8.49756 5.03077 8.71294 5.09231C8.93038 5.15385 9.09038 5.25333 9.19294 5.39077C9.29551 5.52821 9.34679 5.71077 9.34679 5.93846C9.34679 5.97949 9.34269 6.04513 9.33448 6.13538L9.24218 7.01538C9.24012 7.03385 9.2391 7.06051 9.2391 7.09538C9.2391 7.28615 9.31294 7.42154 9.46064 7.50154C9.61038 7.58154 9.81859 7.62154 10.0853 7.62154V8.40923C9.82064 8.40923 9.61346 8.44923 9.46371 8.52923C9.31397 8.60923 9.2391 8.74462 9.2391 8.93538C9.2391 8.97026 9.24012 8.99692 9.24218 9.01538L9.33448 9.88923C9.34269 9.95487 9.34679 10.0246 9.34679 10.0985C9.34679 10.3262 9.29448 10.5077 9.18987 10.6431C9.0873 10.7785 8.92833 10.8769 8.71294 10.9385C8.49756 11 8.21448 11.0308 7.86371 11.0308V10.3538C8.06679 10.3538 8.21653 10.3251 8.31294 10.2677C8.40936 10.2123 8.45038 10.1108 8.43602 9.96308L8.34064 9.05538C8.33448 9 8.33141 8.94872 8.33141 8.90154C8.33141 8.62872 8.41448 8.42461 8.58064 8.28923C8.74884 8.15385 8.98884 8.06256 9.30064 8.01538C8.97653 7.9682 8.73346 7.87897 8.57141 7.74769C8.41141 7.61436 8.33141 7.41231 8.33141 7.14154C8.33141 7.0882 8.33448 7.03282 8.34064 6.97538L8.43602 6.06769C8.43807 6.05538 8.4391 6.03795 8.4391 6.01538C8.4391 5.8882 8.39089 5.8 8.29448 5.75077C8.19807 5.70154 8.05448 5.67692 7.86371 5.67692V5Z" fill="#313131"/>
</svg>
