<?xml version="1.0" encoding="UTF-8"?>
<svg width="16px" height="16px" viewBox="0 0 16 16" version="1.1" xmlns="http://www.w3.org/2000/svg" xmlns:xlink="http://www.w3.org/1999/xlink">
    <title>facebook-messenger</title>
    <g id="Page-1" stroke="none" stroke-width="1" fill="none" fill-rule="evenodd" opacity="0.497116815">
        <g id="Desktop-HD" transform="translate(-1480.000000, -63.000000)" fill="#000000" fill-rule="nonzero">
            <g id="facebook-messenger" transform="translate(1480.000000, 63.000000)">
                <path d="M7.99981025,0.00511461737 C5.89364876,-0.0715230105 3.84774144,0.716379257 2.3370294,2.18591617 C0.826317369,3.65545307 -0.017805909,5.67881235 0.000616084663,7.7862872 C-0.0270249646,9.95997159 0.876564537,12.0416422 2.4833187,13.5058856 L2.52093673,14.7351654 C2.54310034,15.44163 3.12223281,16.0027905 3.82904495,16.0027905 C4.01090379,16.002557 4.19076303,15.9648453 4.357399,15.8920089 L5.75427646,15.2763037 C6.48679009,15.4713256 7.24176027,15.5692185 7.99978843,15.5674671 C10.1060273,15.644136 12.1520277,14.8562665 13.662862,13.3867429 C15.1736964,11.9172192 16.0179714,9.89384189 15.9997098,7.7862872 C16.0179691,5.6787377 15.1736962,3.65536582 13.6628669,2.18584443 C12.1520376,0.716323049 10.1060441,-0.0715481202 7.99981025,0.00511461737 Z M7.99981025,14.1130681 C7.35256641,14.1149342 6.70804879,14.0291725 6.08381417,13.8581192 C5.79474054,13.7801425 5.48766442,13.8037067 5.21387272,13.9248762 L3.96754737,14.4745372 L3.93488157,13.388712 C3.92027624,13.0333728 3.76247515,12.6990728 3.49742018,12.4619544 C2.17413517,11.2709065 1.42960822,9.56646496 1.45501502,7.7862872 C1.44560473,6.0672402 2.13939068,4.41907416 3.37537096,3.22426711 C4.61135124,2.02946007 6.28206808,1.39189013 7.99981025,1.45951357 C10.3114315,1.38093612 12.481894,2.56933239 13.6609852,4.55918446 C14.8400765,6.54903653 14.8400765,9.02354515 13.6609852,11.0133972 C12.481894,13.0032493 10.3114315,14.1916456 7.99981025,14.1130681 L7.99981025,14.1130681 Z M10.7154494,5.52089357 L9.03380063,7.52424087 L6.60009671,6.02865334 C6.29306593,5.8396743 5.89386055,5.90470811 5.66268569,6.18136523 L3.44345471,8.82595703 C3.27555213,9.02476205 3.2267342,9.29815666 3.31545633,9.54278515 C3.40417846,9.78741364 3.61690375,9.96595146 3.87321228,10.0109031 C4.12952081,10.0558548 4.39030593,9.96036173 4.5569789,9.76052471 L6.37352317,7.59667721 L8.80722709,9.09155936 C9.11409269,9.28065703 9.51323293,9.21594296 9.74463084,8.93957467 L11.8289445,6.45546126 C11.9978605,6.2567764 12.0473943,5.98282744 11.9587492,5.73757184 C11.870104,5.49231624 11.6568661,5.31334352 11.3999544,5.26856979 C11.1430428,5.22379606 10.8818334,5.32008365 10.7154494,5.52089357 L10.7154494,5.52089357 Z" id="Shape"></path>
            </g>
        </g>
    </g>
</svg>