<svg width="24" height="24" viewBox="0 0 24 24" fill="none" xmlns="http://www.w3.org/2000/svg">
<path opacity="0.12" d="M9.69706 13.6971C9.10303 13.103 8.80602 12.806 8.69474 12.4635C8.59685 12.1623 8.59685 11.8377 8.69474 11.5365C8.80602 11.194 9.10303 10.897 9.69706 10.3029L10.9029 9.09706C12.1881 7.81193 12.8306 7.16936 13.3823 7.12594C13.861 7.08827 14.3288 7.28203 14.6406 7.64715C15 8.06794 15 8.97667 15 10.7941L15 13.2059C15 15.0233 15 15.9321 14.6406 16.3529C14.3288 16.718 13.861 16.9117 13.3823 16.8741C12.8306 16.8306 12.1881 16.1881 10.9029 14.9029L9.69706 13.6971Z" fill="#6E6466"/>
<path fill-rule="evenodd" clip-rule="evenodd" d="M14.0703 15.8658C13.9144 16.0484 13.6805 16.1453 13.4412 16.1264C13.4178 16.1246 13.2767 16.0953 12.8991 15.7791C12.5405 15.4789 12.0863 15.0257 11.4333 14.3727L10.2274 13.1668C9.92162 12.861 9.72461 12.6632 9.58662 12.5007C9.45432 12.3448 9.42089 12.2714 9.40803 12.2318C9.35908 12.0812 9.35908 11.9189 9.40803 11.7683C9.42089 11.7287 9.45432 11.6553 9.58662 11.4995C9.72461 11.337 9.92162 11.1391 10.2274 10.8334L11.4333 9.62746C12.0863 8.9744 12.5405 8.52123 12.8991 8.22101C13.2767 7.90488 13.4178 7.87554 13.4412 7.87371C13.6805 7.85487 13.9144 7.95175 14.0703 8.13431C14.0855 8.1521 14.1645 8.27263 14.208 8.76316C14.2493 9.22903 14.25 9.87063 14.25 10.7942L14.25 13.206C14.25 14.1295 14.2493 14.7711 14.208 15.237C14.1645 15.7275 14.0855 15.8481 14.0703 15.8658ZM13.3235 17.6218C14.0415 17.6783 14.7432 17.3877 15.2109 16.84C15.5551 16.437 15.6558 15.8928 15.7021 15.3694C15.75 14.8292 15.75 14.1205 15.75 13.2443L15.75 13.206L15.75 10.7942L15.75 10.7559C15.75 9.87965 15.75 9.17096 15.7021 8.63076C15.6558 8.10737 15.5551 7.56315 15.2109 7.16014C14.7432 6.61247 14.0415 6.32182 13.3235 6.37833C12.7951 6.41992 12.3391 6.73357 11.9362 7.07086C11.5204 7.419 11.0193 7.92012 10.3997 8.5397L10.3726 8.5668L9.16673 9.77269L9.14629 9.79313C8.86671 10.0727 8.62553 10.3138 8.44311 10.5287C8.25058 10.7555 8.07986 11.0019 7.98144 11.3048C7.83461 11.7567 7.83461 12.2435 7.98144 12.6954C8.07986 12.9983 8.25058 13.2446 8.44311 13.4714C8.62553 13.6863 8.86671 13.9275 9.14628 14.207L9.16673 14.2275L10.3726 15.4334L10.3997 15.4605C11.0193 16.08 11.5204 16.5812 11.9362 16.9293C12.3391 17.2666 12.7951 17.5802 13.3235 17.6218Z" fill="#6E6466"/>
</svg>
