<svg width="24" height="24" viewBox="0 0 24 24" fill="none" xmlns="http://www.w3.org/2000/svg">
<path fill-rule="evenodd" clip-rule="evenodd" d="M9.46967 5.46967C9.76256 5.17678 10.2374 5.17678 10.5303 5.46967L14.5303 9.46967C14.8232 9.76256 14.8232 10.2374 14.5303 10.5303C14.2374 10.8232 13.7626 10.8232 13.4697 10.5303L9.46967 6.53033C9.17678 6.23744 9.17678 5.76256 9.46967 5.46967ZM16.5303 11.4697C16.8232 11.7626 16.8232 12.2374 16.5303 12.5303L10.5303 18.5303C10.2374 18.8232 9.76256 18.8232 9.46967 18.5303C9.17678 18.2374 9.17678 17.7626 9.46967 17.4697L15.4697 11.4697C15.7626 11.1768 16.2374 11.1768 16.5303 11.4697Z" fill="#22272F"/>
</svg>
