<?xml version="1.0" encoding="UTF-8"?>
<svg width="19px" height="16px" viewBox="0 0 19 16" version="1.1" xmlns="http://www.w3.org/2000/svg" xmlns:xlink="http://www.w3.org/1999/xlink">
    <title>twitter-2</title>
    <g id="Page-1" stroke="none" stroke-width="1" fill="none" fill-rule="evenodd" opacity="0.497116815">
        <g id="Desktop-HD" transform="translate(-1511.000000, -63.000000)" fill="#000000" fill-rule="nonzero">
            <g id="twitter-2" transform="translate(1511.000000, 63.000000)">
                <path d="M18.8030905,1.11845897 C18.8032949,0.811133138 18.6383879,0.527388271 18.3712578,0.375432068 C18.1041276,0.223475866 17.7759587,0.226735963 17.5119001,0.383969105 C17.0116488,0.681725056 16.4730687,0.909751754 15.9110954,1.0617257 C15.1085361,0.373056845 14.0849462,-0.0037935342 13.0274249,2.87936634e-05 C10.615813,0.00283421186 8.64076812,1.91732672 8.5629234,4.32768345 C6.27579853,3.96296087 4.20291609,2.76920718 2.73955841,0.974061772 C2.56062741,0.756971699 2.28725682,0.64051931 2.0067437,0.661892042 C1.72628281,0.684985646 1.47523506,0.844856082 1.33568775,1.08922911 C0.620680979,2.33699731 0.543786469,3.8509959 1.12869422,5.16478549 L1.12702761,5.1664521 C0.863459488,5.32878717 0.703198984,5.61643523 0.703861349,5.92598392 C0.702292212,6.05155947 0.709824521,6.17708367 0.726399106,6.30157047 C0.813693142,7.376978 1.29029812,8.38360529 2.06683584,9.13267856 C1.96042051,9.3354105 1.93996758,9.57241004 2.01007693,9.79037596 C2.34862574,10.8451669 3.06858965,11.7356686 4.0290822,12.2876227 C3.0532499,12.6649718 1.99958968,12.796538 0.960930237,12.6707304 C0.564999727,12.6210492 0.187401839,12.8520225 0.0513136573,13.2271348 C-0.0847745244,13.602247 0.0568878058,14.0216044 0.392571933,14.2373481 C2.17892185,15.387882 4.25884127,15.9995794 6.38364109,15.9993015 C11.3382128,16.0550302 15.7104183,12.7707093 17.0369833,7.99670552 C17.3387446,6.98531508 17.4928097,5.93563436 17.4944049,4.88018755 C17.4944049,4.82426622 17.4944049,4.76667827 17.4935502,4.70909033 C18.395005,3.73692164 18.8670166,2.44271203 18.8030905,1.11845897 L18.8030905,1.11845897 Z M15.9769908,3.86359539 C15.8358261,4.03055129 15.7643878,4.24546283 15.7775099,4.46370484 C15.78586,4.60472607 15.7850225,4.74660198 15.7850225,4.88018755 C15.7832715,5.77207467 15.6525495,6.65902121 15.3969149,7.51348986 C14.3125256,11.579104 10.5904762,14.3774581 6.38364109,14.2899533 C5.6493719,14.2901788 4.91763301,14.2038944 4.20355538,14.0328844 C5.11413461,13.7394323 5.96554272,13.2870232 6.71833148,12.6966185 C7.00244029,12.472922 7.11509233,12.0946768 6.99966885,11.7519884 C6.88424537,11.4093 6.56571055,11.1762862 6.20415952,11.1700593 C5.49378053,11.1590136 4.81542502,10.8726505 4.31202208,10.3713065 C4.43972749,10.3471021 4.56659532,10.3170547 4.69262557,10.281164 C5.07263907,10.172996 5.32902124,9.81850379 5.31275382,9.4237305 C5.2964864,9.02895721 5.01180786,8.69676043 4.62418326,8.62022449 C3.78837036,8.45516208 3.07731198,7.90983087 2.70116644,7.14540734 C2.85563084,7.16649048 3.01108077,7.17958442 3.16689548,7.18463689 C3.5467294,7.19037503 3.88663025,6.94971043 4.00738203,6.58953583 C4.12324674,6.2256095 3.98354341,5.82898727 3.66517905,5.61801064 C2.90156948,5.10929522 2.44442839,4.25114153 2.44824436,3.33360341 C2.44824436,3.27685304 2.44993498,3.22009413 2.45327675,3.16417281 C4.36882498,4.95065923 6.85341375,6.00378406 9.46929678,6.13800293 C9.73683764,6.14854423 9.99439506,6.03561334 10.1678989,5.83168772 C10.3397468,5.62567632 10.4049348,5.35094978 10.3439617,5.08969382 C10.2950833,4.88573764 10.270155,4.67677741 10.269682,4.46704661 C10.2712978,2.94469287 11.5050113,1.710987 13.0273651,1.70937089 C13.7878805,1.70734362 14.5145549,2.02361952 15.0313366,2.58158418 C15.2317717,2.79721493 15.5296371,2.89356966 15.8183889,2.83618306 C16.1694753,2.76785767 16.5155323,2.67583811 16.8541856,2.56075577 C16.6231928,3.03336677 16.328003,3.47179278 15.9769908,3.86359539 Z" id="Shape"></path>
            </g>
        </g>
    </g>
</svg>