<?xml version="1.0" encoding="UTF-8"?>
<svg width="16px" height="18px" viewBox="0 0 16 18" version="1.1" xmlns="http://www.w3.org/2000/svg" xmlns:xlink="http://www.w3.org/1999/xlink">
    <title>github</title>
    <g id="Page-1" stroke="none" stroke-width="1" fill="none" fill-rule="evenodd" opacity="0.497116815">
        <g id="Desktop-HD" transform="translate(-1448.000000, -62.000000)" fill="#000000" fill-rule="nonzero">
            <g id="github" transform="translate(1448.000000, 62.000000)">
                <path d="M6.66654579,15.2598299 C6.66651059,15.027554 6.56326995,14.8073022 6.38476442,14.6586824 C6.20625889,14.5100625 5.97094559,14.4484416 5.74250856,14.4904964 C4.71838914,14.678441 3.42534724,14.7067062 3.0815489,13.7410339 C2.7817688,12.9931428 2.28520393,12.3403051 1.64449754,11.8517312 C1.59878348,11.8268651 1.55521481,11.7982432 1.51424127,11.766161 C1.39945253,11.4633664 1.10997899,11.2625884 0.786159545,11.2611656 L0.782341823,11.2611656 C0.35170304,11.2610105 0.00197330823,11.6090335 1.08904851e-05,12.0396679 C-0.0030370117,12.6775951 0.63448335,13.086326 0.89311833,13.2246089 C1.19810081,13.5310385 1.44320821,13.8917019 1.61584898,14.2880711 C1.90081685,15.0887287 2.72897294,16.3034604 5.10954912,16.1468634 C5.11033144,16.1743697 5.11107465,16.2003428 5.11145799,16.2240236 L5.11489237,16.4333568 C5.11489237,16.8654202 5.46514895,17.2156767 5.89721233,17.2156767 C6.32927572,17.2156767 6.6795323,16.8654202 6.6795323,16.4333568 L6.67571458,16.1842974 C6.67189686,16.0360399 6.66654579,15.8213557 6.66654579,15.2598299 Z M15.0115528,3.42645811 C15.0363837,3.32866811 15.060839,3.2201838 15.0822276,3.09794631 C15.2087518,2.22611975 15.0984484,1.33631048 14.7628768,0.521766668 C14.6771671,0.306815734 14.5008619,0.14071859 14.2811867,0.0679663262 C14.0026808,-0.0260059479 12.9743917,-0.210891625 11.0078974,1.04586628 C9.37326962,0.661195294 7.67166419,0.661195294 6.03703638,1.04586628 C4.07855311,-0.192483636 3.05557588,-0.024441308 2.7797768,0.0641798976 C2.55456547,0.134024462 2.37301381,0.301960107 2.28585909,0.521054757 C1.94343895,1.3512369 1.83433602,2.25919449 1.9703338,3.14686478 C1.98943806,3.24694697 2.01006001,3.33939372 2.03145646,3.42418938 C1.38335942,4.28743346 1.03815257,5.34037527 1.04935545,6.41977076 C1.0472434,6.66059657 1.0583377,6.90135705 1.0825884,7.14096806 C1.34388327,10.741627 3.69084316,11.822668 5.32613441,12.1939727 C5.2921426,12.2917627 5.26120185,12.3964215 5.23369548,12.5072058 C5.13163089,12.9263067 5.38797225,13.3489631 5.80680017,13.4521423 C6.22562809,13.5553216 6.64896492,13.3001056 6.75325813,12.8815537 C6.80303539,12.6208928 6.93062532,12.3814319 7.11921176,12.1947316 C7.35219134,11.9907616 7.44285392,11.6685203 7.35040817,11.372992 C7.25796242,11.0774636 6.99982696,10.8643316 6.6921433,10.8294893 C3.98993191,10.5208406 2.81682748,9.41994435 2.64035174,6.99734976 C2.62080317,6.80546812 2.61200397,6.61264315 2.61399538,6.41977858 C2.60144366,5.65048799 2.85559823,4.90057402 3.33328382,4.29743057 C3.38128178,4.23454989 3.43240551,4.17411789 3.48646207,4.11636262 C3.68173237,3.8978618 3.73849821,3.58854538 3.63353823,3.31494622 C3.58075959,3.17376027 3.54012197,3.02832904 3.5120674,2.88023449 C3.44833321,2.45912472 3.46923784,2.02953199 3.57355775,1.61659999 C4.25349851,1.80863822 4.89342368,2.12122908 5.46286047,2.5394872 C5.65339907,2.66639787 5.88965835,2.70431286 6.11033976,2.64339494 C7.69149319,2.21429204 9.35846924,2.21456209 10.9394836,2.64417726 C11.1614012,2.70503896 11.3988407,2.66567629 11.5892472,2.53645962 C12.1560244,2.11646171 12.7932642,1.80107665 13.4709458,1.60516247 C13.5748051,2.00817771 13.5980413,2.42773794 13.5393205,2.83975725 C13.5109882,3.00211785 13.4667164,3.16128936 13.4071476,3.31496187 C13.3021913,3.58856137 13.3589568,3.89787581 13.5542237,4.11637826 C13.6145797,4.18436969 13.6749357,4.25771219 13.729174,4.32647029 C14.2034832,4.91940451 14.4533425,5.66069617 14.4347405,6.41977076 C14.4361577,6.62286764 14.4263376,6.8258874 14.4053253,7.02789936 C14.2330506,9.41840318 13.0553696,10.520074 10.3405472,10.8294815 C10.0327857,10.8645318 9.77468585,11.0778633 9.68233285,11.3735263 C9.58997986,11.6691893 9.68076739,11.9914989 9.91386208,12.1954904 C10.1083721,12.387177 10.2362414,12.6362193 10.2786657,12.9059934 C10.3315324,13.1154211 10.3558195,13.331039 10.350866,13.5469794 L10.350866,15.3729142 C10.3432071,15.8794195 10.3432071,16.2591185 10.3432071,16.4333098 C10.3432071,16.8653732 10.6934637,17.2156298 11.1255271,17.2156298 C11.5575904,17.2156298 11.907847,16.8653732 11.907847,16.4333098 C11.907847,16.2637029 11.907847,15.8916471 11.9154903,15.3851263 L11.9154903,13.5469794 C11.9217888,13.201061 11.881051,12.855891 11.794395,12.5209433 C11.7696178,12.4109929 11.7392743,12.3023714 11.7034816,12.1954982 C14.1612052,11.7872111 15.9631871,9.66141378 15.9634563,7.17000778 C15.9892363,6.92078103 16.0012293,6.67032047 15.9993804,6.41977076 C16.0167449,5.33920713 15.668658,4.28444915 15.011545,3.42647376 L15.0115528,3.42645811 Z" id="Shape"></path>
            </g>
        </g>
    </g>
</svg>