<?xml version="1.0" encoding="UTF-8"?>
<svg width="16px" height="17px" viewBox="0 0 16 17" version="1.1" xmlns="http://www.w3.org/2000/svg" xmlns:xlink="http://www.w3.org/1999/xlink">
    <title>linkedin-2</title>
    <g id="Page-1" stroke="none" stroke-width="1" fill="none" fill-rule="evenodd" opacity="0.497116815">
        <g id="Desktop-HD" transform="translate(-1416.000000, -63.000000)" fill="#000000" fill-rule="nonzero">
            <g id="linkedin-2" transform="translate(1416.000000, 63.000000)">
                <path d="M11.8900299,5.57670399 C11.2210338,5.57641929 10.5623897,5.74189482 9.97296798,6.05834054 C9.86284866,5.76829425 9.58484122,5.57656529 9.27459439,5.57670399 L6.28552523,5.57670399 C6.08730298,5.57659127 5.89716691,5.65528468 5.75700259,5.795449 C5.61683826,5.93561332 5.53814486,6.12574939 5.53825782,6.32397165 L5.53825782,15.2911791 C5.53814287,15.489402 5.61683564,15.6795392 5.75700039,15.819704 C5.89716515,15.9598687 6.08730237,16.0385615 6.28552523,16.0384465 L9.27459439,16.0384465 C9.47281725,16.0385615 9.66295448,15.9598687 9.80311923,15.819704 C9.94328398,15.6795392 10.0219768,15.489402 10.0218617,15.2911791 L10.0218617,11.181209 C10.0218617,10.9142361 10.16429,10.667543 10.3954953,10.5340565 C10.6267006,10.4005701 10.9115573,10.4005701 11.1427626,10.5340565 C11.3739679,10.667543 11.5163963,10.9142361 11.5163963,11.181209 L11.5163963,15.2911791 C11.5162812,15.489402 11.594974,15.6795392 11.7351387,15.819704 C11.8753035,15.9598687 12.0654407,16.0385615 12.2636636,16.0384465 L15.2527327,16.0384465 C15.4509556,16.0385615 15.6410928,15.9598687 15.7812575,15.819704 C15.9214223,15.6795392 16.0001151,15.489402 16.0000001,15.2911791 L16.0000001,9.68667445 C15.9971797,7.41796988 14.1587345,5.57952466 11.8900299,5.57670399 Z M14.5054984,14.5439118 L13.0109308,14.5439118 L13.0109308,11.181209 C13.0109308,9.94309605 12.007242,8.93940716 10.769129,8.93940716 C9.53101599,8.93940716 8.5273271,9.94309605 8.5273271,11.181209 L8.5273271,14.5439118 L7.03279252,14.5439118 L7.03279252,7.07123894 L8.5273271,7.07123894 L8.5273271,7.59666498 C8.52751305,7.91398866 8.72799651,8.19662476 9.02742318,8.30168675 C9.32684984,8.40674874 9.65997884,8.31134508 9.85839696,8.06370704 C10.5458858,7.19056156 11.7119663,6.85031978 12.7611381,7.21673823 C13.8103099,7.58315669 14.5110359,8.5753721 14.5054984,9.68667445 L14.5054984,14.5439118 Z M4.04372336,5.57670423 L1.0546542,5.57670423 C0.856431949,5.57659127 0.666295879,5.65528468 0.526131557,5.795449 C0.385967235,5.93561332 0.307273829,6.12574939 0.307386786,6.32397165 L0.307386786,15.2911791 C0.307271843,15.489402 0.385964611,15.6795392 0.526129364,15.819704 C0.666294117,15.9598687 0.856431341,16.0385615 1.0546542,16.0384465 L4.04372336,16.0384465 C4.24194622,16.0385615 4.43208345,15.9598687 4.5722482,15.819704 C4.71241295,15.6795392 4.79110572,15.489402 4.79099078,15.2911791 L4.79099078,6.32397165 C4.79110373,6.12574939 4.71241033,5.93561332 4.57224601,5.795449 C4.43208168,5.65528468 4.24194561,5.57659127 4.04372336,5.57670423 Z M3.29645607,14.5439118 L1.80192149,14.5439118 L1.80192149,7.07123894 L3.29645607,7.07123894 L3.29645607,14.5439118 Z M2.56013625,0.00433217505 C1.66923231,-0.0489963412 0.821506384,0.393218587 0.355483063,1.15438613 C-0.110540258,1.91555367 -0.118928509,2.87165143 0.333668012,3.64087841 C0.786264532,4.41010539 1.62610108,4.86712602 2.51780356,4.82943707 L2.53896617,4.82943707 C3.43232146,4.8825 4.2818382,4.43743735 4.74677939,3.67276158 C5.21172059,2.90808581 5.21592684,1.94905413 4.75771105,1.18032945 C4.29949525,0.411604769 3.45391515,-0.040892463 2.56012878,0.00433217505 L2.56013625,0.00433217505 Z M2.53897364,3.33490249 L2.51780356,3.33490249 C2.2563598,3.36664981 1.9939404,3.28396631 1.79791819,3.10807993 C1.60189598,2.93219354 1.49136311,2.68023523 1.49469749,2.41689209 C1.49469749,1.85935597 1.91284585,1.49885928 2.56013625,1.49885928 C2.82426206,1.46364913 3.09070184,1.54446185 3.29076592,1.72046345 C3.49083,1.89646506 3.60494085,2.1504327 3.60369041,2.41689209 C3.60369041,2.97442075 3.18553172,3.33490249 2.53897364,3.33490249 Z" id="Shape"></path>
            </g>
        </g>
    </g>
</svg>