<svg width="24" height="24" viewBox="0 0 24 24" fill="none" xmlns="http://www.w3.org/2000/svg">
<path opacity="0.12" d="M3 11C3 8.19974 3 6.79961 3.54497 5.73005C4.02433 4.78924 4.78924 4.02433 5.73005 3.54497C6.79961 3 8.19974 3 11 3H21V13C21 15.8003 21 17.2004 20.455 18.27C19.9757 19.2108 19.2108 19.9757 18.27 20.455C17.2004 21 15.8003 21 13 21H11C8.19974 21 6.79961 21 5.73005 20.455C4.78924 19.9757 4.02433 19.2108 3.54497 18.27C3 17.2004 3 15.8003 3 13V11Z" fill="#22272F"/>
<path fill-rule="evenodd" clip-rule="evenodd" d="M9.49999 2.25L9.3787 2.24999C8.09997 2.24984 7.32049 2.24975 6.65768 2.40888C4.5552 2.91364 2.91362 4.55521 2.40886 6.65769C2.24973 7.3205 2.24983 8.09999 2.24998 9.37871L2.24999 9.5V13L2.24999 13.0336C2.24998 14.4053 2.24998 15.4807 2.3206 16.3451C2.39251 17.2252 2.54137 17.9523 2.8767 18.6104C3.42797 19.6924 4.30761 20.572 5.38954 21.1233C6.04767 21.4586 6.77478 21.6075 7.65492 21.6794C8.51926 21.75 9.59467 21.75 10.9664 21.75H10.9664H11H14.5L14.6213 21.75C15.9 21.7502 16.6795 21.7503 17.3423 21.5911C19.4448 21.0864 21.0864 19.4448 21.5911 17.3423C21.7502 16.6795 21.7502 15.9 21.75 14.6213L21.75 14.5V14C21.75 13.5858 21.4142 13.25 21 13.25C20.5858 13.25 20.25 13.5858 20.25 14V14.5C20.25 15.9378 20.2448 16.5248 20.1326 16.9921C19.7595 18.5462 18.5461 19.7595 16.9921 20.1326C16.5248 20.2448 15.9378 20.25 14.5 20.25H11C9.58748 20.25 8.57321 20.2494 7.77707 20.1844C6.98969 20.12 6.48196 19.9964 6.07053 19.7868C5.27084 19.3793 4.62067 18.7292 4.21321 17.9295C4.00358 17.518 3.87995 17.0103 3.81562 16.2229C3.75057 15.4268 3.74999 14.4125 3.74999 13V9.5C3.74999 8.06216 3.75521 7.47522 3.86742 7.00786C4.2405 5.45385 5.45384 4.24052 7.00785 3.86743C7.47521 3.75523 8.06214 3.75 9.49999 3.75H9.99999C10.4142 3.75 10.75 3.41422 10.75 3C10.75 2.58579 10.4142 2.25 9.99999 2.25H9.49999ZM14.25 3C14.25 3.41422 14.5858 3.75 15 3.75H19.1893L11.4697 11.4697C11.1768 11.7626 11.1768 12.2374 11.4697 12.5303C11.7626 12.8232 12.2374 12.8232 12.5303 12.5303L20.25 4.81066V9C20.25 9.41422 20.5858 9.75 21 9.75C21.4142 9.75 21.75 9.41422 21.75 9V3C21.75 2.58579 21.4142 2.25 21 2.25H15C14.5858 2.25 14.25 2.58579 14.25 3Z" fill="url(#paint0_linear_7_7)"/>
<defs>
<linearGradient id="paint0_linear_7_7" x1="2" y1="2" x2="22" y2="22" gradientUnits="userSpaceOnUse">
<stop stop-color="#6B555D"/>
<stop offset="1" stop-color="#4E3C42"/>
</linearGradient>
</defs>
</svg>
