<svg width="24" height="24" viewBox="0 0 24 24" fill="none" xmlns="http://www.w3.org/2000/svg">
<path opacity="0.12" d="M14.3029 10.3029C14.897 10.897 15.194 11.194 15.3053 11.5365C15.4032 11.8377 15.4032 12.1623 15.3053 12.4635C15.194 12.806 14.897 13.103 14.3029 13.6971L13.0971 14.9029C11.8119 16.1881 11.1694 16.8306 10.6177 16.8741C10.139 16.9117 9.67123 16.718 9.35939 16.3529C9 15.9321 9 15.0233 9 13.2059L9 10.7941C9 8.97667 9 8.06794 9.35939 7.64715C9.67123 7.28203 10.139 7.08827 10.6177 7.12594C11.1694 7.16936 11.8119 7.81193 13.0971 9.09706L14.3029 10.3029Z" fill="#6E6466"/>
<path fill-rule="evenodd" clip-rule="evenodd" d="M9.9297 8.13416C10.0856 7.9516 10.3195 7.85472 10.5588 7.87356C10.5822 7.87539 10.7233 7.90473 11.1009 8.22085C11.4595 8.52108 11.9137 8.97425 12.5667 9.62731L13.7726 10.8332C14.0784 11.139 14.2754 11.3368 14.4134 11.4993C14.5457 11.6552 14.5791 11.7286 14.592 11.7682C14.6409 11.9188 14.6409 12.0811 14.592 12.2317C14.5791 12.2713 14.5457 12.3447 14.4134 12.5005C14.2754 12.663 14.0784 12.8609 13.7726 13.1666L12.5667 14.3725C11.9137 15.0256 11.4595 15.4788 11.1009 15.779C10.7233 16.0951 10.5822 16.1245 10.5588 16.1263C10.3195 16.1451 10.0856 16.0482 9.9297 15.8657C9.91451 15.8479 9.83546 15.7274 9.792 15.2368C9.75071 14.771 9.75 14.1294 9.75 13.2058V10.794C9.75 9.87047 9.75072 9.22887 9.792 8.76301C9.83547 8.27248 9.91451 8.15194 9.9297 8.13416ZM10.6765 6.37818C9.95852 6.32167 9.25684 6.61231 8.78909 7.15998C8.44489 7.56299 8.34423 8.10722 8.29785 8.63061C8.24998 9.17081 8.24999 9.87951 8.25 10.7557V10.794V13.2058V13.2441C8.24999 14.1203 8.24998 14.829 8.29785 15.3692C8.34423 15.8926 8.44489 16.4369 8.78909 16.8399C9.25684 17.3875 9.95852 17.6782 10.6765 17.6217C11.2049 17.5801 11.6609 17.2664 12.0638 16.9291C12.4796 16.581 12.9807 16.0799 13.6003 15.4603L13.6274 15.4332L14.8333 14.2273L14.8537 14.2069C15.1333 13.9273 15.3745 13.6861 15.5569 13.4713C15.7494 13.2445 15.9201 12.9981 16.0186 12.6952C16.1654 12.2433 16.1654 11.7565 16.0186 11.3046C15.9201 11.0017 15.7494 10.7554 15.5569 10.5286C15.3745 10.3137 15.1333 10.0725 14.8537 9.79298L14.8333 9.77254L13.6274 8.56665L13.6003 8.53954C12.9807 7.91997 12.4796 7.41884 12.0638 7.07071C11.6609 6.73341 11.2049 6.41976 10.6765 6.37818Z" fill="#6E6466"/>
</svg>
