<svg width="24" height="24" viewBox="0 0 24 24" fill="none" xmlns="http://www.w3.org/2000/svg">
<rect opacity="0.12" x="2" y="2" width="20" height="20" rx="10" fill="#6E6466"/>
<path fill-rule="evenodd" clip-rule="evenodd" d="M11.25 2C11.25 1.58579 11.5858 1.25 12 1.25C17.9371 1.25 22.75 6.06294 22.75 12C22.75 17.9371 17.9371 22.75 12 22.75C6.06294 22.75 1.25 17.9371 1.25 12C1.25 9.03168 2.45406 6.34315 4.3986 4.3986C4.6915 4.10571 5.16637 4.10571 5.45926 4.3986C5.75216 4.6915 5.75216 5.16637 5.45926 5.45926C3.78452 7.134 2.75 9.44548 2.75 12C2.75 17.1086 6.89137 21.25 12 21.25C17.1086 21.25 21.25 17.1086 21.25 12C21.25 7.14386 17.5079 3.16173 12.75 2.77997V5.33333C12.75 5.74755 12.4142 6.08333 12 6.08333C11.5858 6.08333 11.25 5.74755 11.25 5.33333V2ZM8.13634 8.13634C8.42923 7.84344 8.9041 7.84344 9.197 8.13634L12.5303 11.4697C12.8232 11.7626 12.8232 12.2374 12.5303 12.5303C12.2374 12.8232 11.7626 12.8232 11.4697 12.5303L8.13634 9.197C7.84344 8.9041 7.84344 8.42923 8.13634 8.13634Z" fill="#6E6466"/>
</svg>
