<svg width="24" height="24" viewBox="0 0 24 24" fill="none" xmlns="http://www.w3.org/2000/svg">
<path fill-rule="evenodd" clip-rule="evenodd" d="M14.5303 5.46967C14.8232 5.76256 14.8232 6.23744 14.5303 6.53033L8.53033 12.5303C8.23744 12.8232 7.76257 12.8232 7.46967 12.5303C7.17678 12.2374 7.17678 11.7626 7.46967 11.4697L13.4697 5.46967C13.7626 5.17678 14.2374 5.17678 14.5303 5.46967ZM9.46967 13.4697C9.76257 13.1768 10.2374 13.1768 10.5303 13.4697L14.5303 17.4697C14.8232 17.7626 14.8232 18.2374 14.5303 18.5303C14.2374 18.8232 13.7626 18.8232 13.4697 18.5303L9.46967 14.5303C9.17678 14.2374 9.17678 13.7626 9.46967 13.4697Z" fill="#22272F"/>
</svg>
